<svg version="1.1" xmlns="http://www.w3.org/2000/svg" xmlns:xlink="http://www.w3.org/1999/xlink" width="524.26806640625" height="398"><defs/><g><text fill="#eeeeee" stroke="none" font-family="Arial" font-size="24px" font-style="normal" font-weight="normal" text-decoration="none" x="0" y="0">UNREGISTERED</text><text fill="#eeeeee" stroke="none" font-family="Arial" font-size="24px" font-style="normal" font-weight="normal" text-decoration="none" x="0" y="30">UNREGISTERED</text><text fill="#eeeeee" stroke="none" font-family="Arial" font-size="24px" font-style="normal" font-weight="normal" text-decoration="none" x="0" y="60">UNREGISTERED</text><text fill="#eeeeee" stroke="none" font-family="Arial" font-size="24px" font-style="normal" font-weight="normal" text-decoration="none" x="0" y="90">UNREGISTERED</text><text fill="#eeeeee" stroke="none" font-family="Arial" font-size="24px" font-style="normal" font-weight="normal" text-decoration="none" x="0" y="120">UNREGISTERED</text><text fill="#eeeeee" stroke="none" font-family="Arial" font-size="24px" font-style="normal" font-weight="normal" text-decoration="none" x="0" y="150">UNREGISTERED</text><text fill="#eeeeee" stroke="none" font-family="Arial" font-size="24px" font-style="normal" font-weight="normal" text-decoration="none" x="0" y="180">UNREGISTERED</text><text fill="#eeeeee" stroke="none" font-family="Arial" font-size="24px" font-style="normal" font-weight="normal" text-decoration="none" x="0" y="210">UNREGISTERED</text><text fill="#eeeeee" stroke="none" font-family="Arial" font-size="24px" font-style="normal" font-weight="normal" text-decoration="none" x="0" y="240">UNREGISTERED</text><text fill="#eeeeee" stroke="none" font-family="Arial" font-size="24px" font-style="normal" font-weight="normal" text-decoration="none" x="0" y="270">UNREGISTERED</text><text fill="#eeeeee" stroke="none" font-family="Arial" font-size="24px" font-style="normal" font-weight="normal" text-decoration="none" x="0" y="300">UNREGISTERED</text><text fill="#eeeeee" stroke="none" font-family="Arial" font-size="24px" font-style="normal" font-weight="normal" text-decoration="none" x="0" y="330">UNREGISTERED</text><text fill="#eeeeee" stroke="none" font-family="Arial" font-size="24px" font-style="normal" font-weight="normal" text-decoration="none" x="0" y="360">UNREGISTERED</text><text fill="#eeeeee" stroke="none" font-family="Arial" font-size="24px" font-style="normal" font-weight="normal" text-decoration="none" x="0" y="390">UNREGISTERED</text><text fill="#eeeeee" stroke="none" font-family="Arial" font-size="24px" font-style="normal" font-weight="normal" text-decoration="none" x="200" y="0">UNREGISTERED</text><text fill="#eeeeee" stroke="none" font-family="Arial" font-size="24px" font-style="normal" font-weight="normal" text-decoration="none" x="200" y="30">UNREGISTERED</text><text fill="#eeeeee" stroke="none" font-family="Arial" font-size="24px" font-style="normal" font-weight="normal" text-decoration="none" x="200" y="60">UNREGISTERED</text><text fill="#eeeeee" stroke="none" font-family="Arial" font-size="24px" font-style="normal" font-weight="normal" text-decoration="none" x="200" y="90">UNREGISTERED</text><text fill="#eeeeee" stroke="none" font-family="Arial" font-size="24px" font-style="normal" font-weight="normal" text-decoration="none" x="200" y="120">UNREGISTERED</text><text fill="#eeeeee" stroke="none" font-family="Arial" font-size="24px" font-style="normal" font-weight="normal" text-decoration="none" x="200" y="150">UNREGISTERED</text><text fill="#eeeeee" stroke="none" font-family="Arial" font-size="24px" font-style="normal" font-weight="normal" text-decoration="none" x="200" y="180">UNREGISTERED</text><text fill="#eeeeee" stroke="none" font-family="Arial" font-size="24px" font-style="normal" font-weight="normal" text-decoration="none" x="200" y="210">UNREGISTERED</text><text fill="#eeeeee" stroke="none" font-family="Arial" font-size="24px" font-style="normal" font-weight="normal" text-decoration="none" x="200" y="240">UNREGISTERED</text><text fill="#eeeeee" stroke="none" font-family="Arial" font-size="24px" font-style="normal" font-weight="normal" text-decoration="none" x="200" y="270">UNREGISTERED</text><text fill="#eeeeee" stroke="none" font-family="Arial" font-size="24px" font-style="normal" font-weight="normal" text-decoration="none" x="200" y="300">UNREGISTERED</text><text fill="#eeeeee" stroke="none" font-family="Arial" font-size="24px" font-style="normal" font-weight="normal" text-decoration="none" x="200" y="330">UNREGISTERED</text><text fill="#eeeeee" stroke="none" font-family="Arial" font-size="24px" font-style="normal" font-weight="normal" text-decoration="none" x="200" y="360">UNREGISTERED</text><text fill="#eeeeee" stroke="none" font-family="Arial" font-size="24px" font-style="normal" font-weight="normal" text-decoration="none" x="200" y="390">UNREGISTERED</text><text fill="#eeeeee" stroke="none" font-family="Arial" font-size="24px" font-style="normal" font-weight="normal" text-decoration="none" x="400" y="0">UNREGISTERED</text><text fill="#eeeeee" stroke="none" font-family="Arial" font-size="24px" font-style="normal" font-weight="normal" text-decoration="none" x="400" y="30">UNREGISTERED</text><text fill="#eeeeee" stroke="none" font-family="Arial" font-size="24px" font-style="normal" font-weight="normal" text-decoration="none" x="400" y="60">UNREGISTERED</text><text fill="#eeeeee" stroke="none" font-family="Arial" font-size="24px" font-style="normal" font-weight="normal" text-decoration="none" x="400" y="90">UNREGISTERED</text><text fill="#eeeeee" stroke="none" font-family="Arial" font-size="24px" font-style="normal" font-weight="normal" text-decoration="none" x="400" y="120">UNREGISTERED</text><text fill="#eeeeee" stroke="none" font-family="Arial" font-size="24px" font-style="normal" font-weight="normal" text-decoration="none" x="400" y="150">UNREGISTERED</text><text fill="#eeeeee" stroke="none" font-family="Arial" font-size="24px" font-style="normal" font-weight="normal" text-decoration="none" x="400" y="180">UNREGISTERED</text><text fill="#eeeeee" stroke="none" font-family="Arial" font-size="24px" font-style="normal" font-weight="normal" text-decoration="none" x="400" y="210">UNREGISTERED</text><text fill="#eeeeee" stroke="none" font-family="Arial" font-size="24px" font-style="normal" font-weight="normal" text-decoration="none" x="400" y="240">UNREGISTERED</text><text fill="#eeeeee" stroke="none" font-family="Arial" font-size="24px" font-style="normal" font-weight="normal" text-decoration="none" x="400" y="270">UNREGISTERED</text><text fill="#eeeeee" stroke="none" font-family="Arial" font-size="24px" font-style="normal" font-weight="normal" text-decoration="none" x="400" y="300">UNREGISTERED</text><text fill="#eeeeee" stroke="none" font-family="Arial" font-size="24px" font-style="normal" font-weight="normal" text-decoration="none" x="400" y="330">UNREGISTERED</text><text fill="#eeeeee" stroke="none" font-family="Arial" font-size="24px" font-style="normal" font-weight="normal" text-decoration="none" x="400" y="360">UNREGISTERED</text><text fill="#eeeeee" stroke="none" font-family="Arial" font-size="24px" font-style="normal" font-weight="normal" text-decoration="none" x="400" y="390">UNREGISTERED</text><g transform="translate(2,-38) scale(1,1)"><rect fill="#C0C0C0" stroke="none" x="215" y="55" width="108.6962890625" height="130" opacity="0.2"/></g><g transform="translate(2,-38) scale(1,1)"><rect fill="#ffffff" stroke="none" x="208" y="48" width="108.6962890625" height="130"/></g><g transform="translate(2,-38) scale(1,1)"><path fill="none" stroke="#000000" d="M 208 48 L 316.6962890625 48 L 316.6962890625 178 L 208 178 L 208 48 Z Z" stroke-miterlimit="10"/></g><g transform="translate(2,-38) scale(1,1)"><path fill="none" stroke="#000000" d="M 208 73 L 316.6962890625 73" stroke-miterlimit="10"/></g><g transform="translate(2,-38) scale(1,1)"><path fill="none" stroke="#000000" d="M 208 126 L 316.6962890625 126" stroke-miterlimit="10"/></g><g transform="translate(2,-38) scale(1,1)"><g><path fill="none" stroke="none"/><text fill="#000000" stroke="none" font-family="Arial" font-size="13px" font-style="italic" font-weight="bold" text-decoration="none" x="245.377685546875" y="66">Mona</text></g></g><g transform="translate(2,-38) scale(1,1)"><g><path fill="none" stroke="none"/><text fill="#000000" stroke="none" font-family="Arial" font-size="13px" font-style="normal" font-weight="normal" text-decoration="none" x="213" y="89">-id: int</text></g></g><g transform="translate(2,-38) scale(1,1)"><g><path fill="none" stroke="none"/><text fill="#000000" stroke="none" font-family="Arial" font-size="13px" font-style="normal" font-weight="normal" text-decoration="none" x="213" y="104">-name: String</text></g></g><g transform="translate(2,-38) scale(1,1)"><g><path fill="none" stroke="none"/><text fill="#000000" stroke="none" font-family="Arial" font-size="13px" font-style="normal" font-weight="normal" text-decoration="none" x="213" y="119">-skinColor: String</text></g></g><g transform="translate(2,-38) scale(1,1)"><g><path fill="none" stroke="none"/><text fill="#000000" stroke="none" font-family="Arial" font-size="13px" font-style="italic" font-weight="normal" text-decoration="none" x="213" y="142">+activity()</text></g></g><g transform="translate(2,-38) scale(1,1)"><g><path fill="none" stroke="none"/><text fill="#000000" stroke="none" font-family="Arial" font-size="13px" font-style="italic" font-weight="normal" text-decoration="none" x="213" y="157">+showMessage()</text></g></g><g transform="translate(2,-38) scale(1,1)"><g><path fill="none" stroke="none"/><text fill="#000000" stroke="none" font-family="Arial" font-size="13px" font-style="normal" font-weight="normal" text-decoration="none" x="213" y="172">+showGreeting()</text></g></g><g transform="translate(2,-38) scale(1,1)"><rect fill="#C0C0C0" stroke="none" x="15" y="63" width="134.708984375" height="115" opacity="0.2"/></g><g transform="translate(2,-38) scale(1,1)"><rect fill="#ffffff" stroke="none" x="8" y="56" width="134.708984375" height="115"/></g><g transform="translate(2,-38) scale(1,1)"><path fill="none" stroke="#000000" d="M 8 56 L 142.708984375 56 L 142.708984375 171 L 8 171 L 8 56 Z Z" stroke-miterlimit="10"/></g><g transform="translate(2,-38) scale(1,1)"><path fill="none" stroke="#000000" d="M 8 81 L 142.708984375 81" stroke-miterlimit="10"/></g><g transform="translate(2,-38) scale(1,1)"><path fill="none" stroke="#000000" d="M 8 149 L 142.708984375 149" stroke-miterlimit="10"/></g><g transform="translate(2,-38) scale(1,1)"><g><path fill="none" stroke="none"/><text fill="#000000" stroke="none" font-family="Arial" font-size="13px" font-style="normal" font-weight="bold" text-decoration="none" x="37.1923828125" y="74">SentryToCat</text></g></g><g transform="translate(2,-38) scale(1,1)"><g><path fill="none" stroke="none"/><text fill="#000000" stroke="none" font-family="Arial" font-size="13px" font-style="normal" font-weight="normal" text-decoration="none" x="13" y="97">-HoseSize: int</text></g></g><g transform="translate(2,-38) scale(1,1)"><g><path fill="none" stroke="none"/><text fill="#000000" stroke="none" font-family="Arial" font-size="13px" font-style="normal" font-weight="normal" text-decoration="none" x="13" y="112">-costumeColor: String</text></g></g><g transform="translate(2,-38) scale(1,1)"><g><path fill="none" stroke="none"/><text fill="#000000" stroke="none" font-family="Arial" font-size="13px" font-style="normal" font-weight="normal" text-decoration="none" x="13" y="127">-hoseColor: String</text></g></g><g transform="translate(2,-38) scale(1,1)"><g><path fill="none" stroke="none"/><text fill="#000000" stroke="none" font-family="Arial" font-size="13px" font-style="normal" font-weight="normal" text-decoration="none" x="13" y="142">-helmetColor: String</text></g></g><g transform="translate(2,-38) scale(1,1)"><g><path fill="none" stroke="none"/><text fill="#000000" stroke="none" font-family="Arial" font-size="13px" font-style="normal" font-weight="normal" text-decoration="none" x="13" y="165">+SentryToCat()</text></g></g><g transform="translate(2,-38) scale(1,1)"><path fill="none" stroke="#000000" d="M 144 113 L 207 113" stroke-miterlimit="10"/></g><g transform="translate(2,-38) scale(1,1)"><path fill="#FFFFFF" stroke="none" d="M 186.6746502847517 121.41903551203198 L 207 113 L 186.6746502847517 104.58096448796803"/></g><g transform="translate(2,-38) scale(1,1)"><path fill="none" stroke="#000000" d="M 186.6746502847517 121.41903551203198 L 207 113 L 186.6746502847517 104.58096448796803 L 186.6746502847517 121.41903551203198" stroke-miterlimit="10"/></g><g transform="translate(2,-38) scale(1,1)"><rect fill="#C0C0C0" stroke="none" x="407" y="71" width="111.22265625" height="85" opacity="0.2"/></g><g transform="translate(2,-38) scale(1,1)"><rect fill="#ffffff" stroke="none" x="400" y="64" width="111.22265625" height="85"/></g><g transform="translate(2,-38) scale(1,1)"><path fill="none" stroke="#000000" d="M 400 64 L 511.22265625 64 L 511.22265625 149 L 400 149 L 400 64 Z Z" stroke-miterlimit="10"/></g><g transform="translate(2,-38) scale(1,1)"><path fill="none" stroke="#000000" d="M 400 89 L 511.22265625 89" stroke-miterlimit="10"/></g><g transform="translate(2,-38) scale(1,1)"><path fill="none" stroke="#000000" d="M 400 127 L 511.22265625 127" stroke-miterlimit="10"/></g><g transform="translate(2,-38) scale(1,1)"><g><path fill="none" stroke="none"/><text fill="#000000" stroke="none" font-family="Arial" font-size="13px" font-style="normal" font-weight="bold" text-decoration="none" x="409.86376953125" y="82">UmbrellaToCat</text></g></g><g transform="translate(2,-38) scale(1,1)"><g><path fill="none" stroke="none"/><text fill="#000000" stroke="none" font-family="Arial" font-size="13px" font-style="normal" font-weight="normal" text-decoration="none" x="405" y="103.5">-accessory</text></g></g><g transform="translate(2,-38) scale(1,1)"><g><path fill="none" stroke="none"/><text fill="#000000" stroke="none" font-family="Arial" font-size="13px" font-style="normal" font-weight="normal" text-decoration="none" x="405" y="120">-accessoryColor</text></g></g><g transform="translate(2,-38) scale(1,1)"><g><path fill="none" stroke="none"/><text fill="#000000" stroke="none" font-family="Arial" font-size="13px" font-style="normal" font-weight="normal" text-decoration="none" x="405" y="143">+UmbrellaToCat()</text></g></g><g transform="translate(2,-38) scale(1,1)"><path fill="none" stroke="#000000" d="M 399 108 L 318 111" stroke-miterlimit="10"/></g><g transform="translate(2,-38) scale(1,1)"><path fill="#FFFFFF" stroke="none" d="M 337.9998209877528 101.8344579834119 L 318 111 L 338.6230259561367 118.66099212977738"/></g><g transform="translate(2,-38) scale(1,1)"><path fill="none" stroke="#000000" d="M 337.9998209877528 101.8344579834119 L 318 111 L 338.6230259561367 118.66099212977738 L 337.9998209877528 101.8344579834119" stroke-miterlimit="10"/></g><g transform="translate(2,-38) scale(1,1)"><rect fill="#C0C0C0" stroke="none" x="399" y="183" width="120.26806640625" height="100" opacity="0.2"/></g><g transform="translate(2,-38) scale(1,1)"><rect fill="#ffffff" stroke="none" x="392" y="176" width="120.26806640625" height="100"/></g><g transform="translate(2,-38) scale(1,1)"><path fill="none" stroke="#000000" d="M 392 176 L 512.26806640625 176 L 512.26806640625 276 L 392 276 L 392 176 Z Z" stroke-miterlimit="10"/></g><g transform="translate(2,-38) scale(1,1)"><path fill="none" stroke="#000000" d="M 392 201 L 512.26806640625 201" stroke-miterlimit="10"/></g><g transform="translate(2,-38) scale(1,1)"><path fill="none" stroke="#000000" d="M 392 254 L 512.26806640625 254" stroke-miterlimit="10"/></g><g transform="translate(2,-38) scale(1,1)"><g><path fill="none" stroke="none"/><text fill="#000000" stroke="none" font-family="Arial" font-size="13px" font-style="normal" font-weight="bold" text-decoration="none" x="421.07177734375" y="194">HomerCat</text></g></g><g transform="translate(2,-38) scale(1,1)"><g><path fill="none" stroke="none"/><text fill="#000000" stroke="none" font-family="Arial" font-size="13px" font-style="normal" font-weight="normal" text-decoration="none" x="397" y="217">-shirtColor: String</text></g></g><g transform="translate(2,-38) scale(1,1)"><g><path fill="none" stroke="none"/><text fill="#000000" stroke="none" font-family="Arial" font-size="13px" font-style="normal" font-weight="normal" text-decoration="none" x="397" y="232">-pantsColor: String</text></g></g><g transform="translate(2,-38) scale(1,1)"><g><path fill="none" stroke="none"/><text fill="#000000" stroke="none" font-family="Arial" font-size="13px" font-style="normal" font-weight="normal" text-decoration="none" x="397" y="247">-shoesColor: String</text></g></g><g transform="translate(2,-38) scale(1,1)"><g><path fill="none" stroke="none"/><text fill="#000000" stroke="none" font-family="Arial" font-size="13px" font-style="normal" font-weight="normal" text-decoration="none" x="397" y="270">+HomerCat()</text></g></g><g transform="translate(2,-38) scale(1,1)"><rect fill="#C0C0C0" stroke="none" x="39" y="215" width="103.6435546875" height="70" opacity="0.2"/></g><g transform="translate(2,-38) scale(1,1)"><rect fill="#ffffff" stroke="none" x="32" y="208" width="103.6435546875" height="70"/></g><g transform="translate(2,-38) scale(1,1)"><path fill="none" stroke="#000000" d="M 32 208 L 135.6435546875 208 L 135.6435546875 278 L 32 278 L 32 208 Z Z" stroke-miterlimit="10"/></g><g transform="translate(2,-38) scale(1,1)"><path fill="none" stroke="#000000" d="M 32 233 L 135.6435546875 233" stroke-miterlimit="10"/></g><g transform="translate(2,-38) scale(1,1)"><path fill="none" stroke="#000000" d="M 32 256 L 135.6435546875 256" stroke-miterlimit="10"/></g><g transform="translate(2,-38) scale(1,1)"><g><path fill="none" stroke="none"/><text fill="#000000" stroke="none" font-family="Arial" font-size="13px" font-style="normal" font-weight="bold" text-decoration="none" x="51.44873046875" y="226">DinoToCat</text></g></g><g transform="translate(2,-38) scale(1,1)"><g><path fill="none" stroke="none"/><text fill="#000000" stroke="none" font-family="Arial" font-size="13px" font-style="normal" font-weight="normal" text-decoration="none" x="37" y="249">-costume: String</text></g></g><g transform="translate(2,-38) scale(1,1)"><g><path fill="none" stroke="none"/><text fill="#000000" stroke="none" font-family="Arial" font-size="13px" font-style="normal" font-weight="normal" text-decoration="none" x="37" y="272">+DinoToCat()</text></g></g><g transform="translate(2,-38) scale(1,1)"><rect fill="#C0C0C0" stroke="none" x="135" y="303" width="137.96533203125" height="100" opacity="0.2"/></g><g transform="translate(2,-38) scale(1,1)"><rect fill="#ffffff" stroke="none" x="128" y="296" width="137.96533203125" height="100"/></g><g transform="translate(2,-38) scale(1,1)"><path fill="none" stroke="#000000" d="M 128 296 L 265.96533203125 296 L 265.96533203125 396 L 128 396 L 128 296 Z Z" stroke-miterlimit="10"/></g><g transform="translate(2,-38) scale(1,1)"><path fill="none" stroke="#000000" d="M 128 321 L 265.96533203125 321" stroke-miterlimit="10"/></g><g transform="translate(2,-38) scale(1,1)"><path fill="none" stroke="#000000" d="M 128 374 L 265.96533203125 374" stroke-miterlimit="10"/></g><g transform="translate(2,-38) scale(1,1)"><g><path fill="none" stroke="none"/><text fill="#000000" stroke="none" font-family="Arial" font-size="13px" font-style="normal" font-weight="bold" text-decoration="none" x="137.8701171875" y="314">FemaleCoderToCat</text></g></g><g transform="translate(2,-38) scale(1,1)"><g><path fill="none" stroke="none"/><text fill="#000000" stroke="none" font-family="Arial" font-size="13px" font-style="normal" font-weight="normal" text-decoration="none" x="133" y="337">-hairColor: String</text></g></g><g transform="translate(2,-38) scale(1,1)"><g><path fill="none" stroke="none"/><text fill="#000000" stroke="none" font-family="Arial" font-size="13px" font-style="normal" font-weight="normal" text-decoration="none" x="133" y="352">-shoesColor: String</text></g></g><g transform="translate(2,-38) scale(1,1)"><g><path fill="none" stroke="none"/><text fill="#000000" stroke="none" font-family="Arial" font-size="13px" font-style="normal" font-weight="normal" text-decoration="none" x="133" y="367">-tool: String</text></g></g><g transform="translate(2,-38) scale(1,1)"><g><path fill="none" stroke="none"/><text fill="#000000" stroke="none" font-family="Arial" font-size="13px" font-style="normal" font-weight="normal" text-decoration="none" x="133" y="390">+FemaleCoderToCat()</text></g></g><g transform="translate(2,-38) scale(1,1)"><rect fill="#C0C0C0" stroke="none" x="295" y="303" width="144.09716796875" height="130" opacity="0.2"/></g><g transform="translate(2,-38) scale(1,1)"><rect fill="#ffffff" stroke="none" x="288" y="296" width="144.09716796875" height="130"/></g><g transform="translate(2,-38) scale(1,1)"><path fill="none" stroke="#000000" d="M 288 296 L 432.09716796875 296 L 432.09716796875 426 L 288 426 L 288 296 Z Z" stroke-miterlimit="10"/></g><g transform="translate(2,-38) scale(1,1)"><path fill="none" stroke="#000000" d="M 288 321 L 432.09716796875 321" stroke-miterlimit="10"/></g><g transform="translate(2,-38) scale(1,1)"><path fill="none" stroke="#000000" d="M 288 404 L 432.09716796875 404" stroke-miterlimit="10"/></g><g transform="translate(2,-38) scale(1,1)"><g><path fill="none" stroke="none"/><text fill="#000000" stroke="none" font-family="Arial" font-size="13px" font-style="normal" font-weight="bold" text-decoration="none" x="321.169189453125" y="314">GrinchToCat</text></g></g><g transform="translate(2,-38) scale(1,1)"><g><path fill="none" stroke="none"/><text fill="#000000" stroke="none" font-family="Arial" font-size="13px" font-style="normal" font-weight="normal" text-decoration="none" x="293" y="337">-custome: String</text></g></g><g transform="translate(2,-38) scale(1,1)"><g><path fill="none" stroke="none"/><text fill="#000000" stroke="none" font-family="Arial" font-size="13px" font-style="normal" font-weight="normal" text-decoration="none" x="293" y="352">-customeColor: String</text></g></g><g transform="translate(2,-38) scale(1,1)"><g><path fill="none" stroke="none"/><text fill="#000000" stroke="none" font-family="Arial" font-size="13px" font-style="normal" font-weight="normal" text-decoration="none" x="293" y="367">-capColor: String</text></g></g><g transform="translate(2,-38) scale(1,1)"><g><path fill="none" stroke="none"/><text fill="#000000" stroke="none" font-family="Arial" font-size="13px" font-style="normal" font-weight="normal" text-decoration="none" x="293" y="382">-accessory: String</text></g></g><g transform="translate(2,-38) scale(1,1)"><g><path fill="none" stroke="none"/><text fill="#000000" stroke="none" font-family="Arial" font-size="13px" font-style="normal" font-weight="normal" text-decoration="none" x="293" y="397">-accessoryColor: String</text></g></g><g transform="translate(2,-38) scale(1,1)"><g><path fill="none" stroke="none"/><text fill="#000000" stroke="none" font-family="Arial" font-size="13px" font-style="normal" font-weight="normal" text-decoration="none" x="293" y="420">+GrinchToCat()</text></g></g><g transform="translate(2,-38) scale(1,1)"><path fill="none" stroke="#000000" d="M 391 190 L 318 146" stroke-miterlimit="10"/></g><g transform="translate(2,-38) scale(1,1)"><path fill="#FFFFFF" stroke="none" d="M 339.7538424181379 149.28181962435855 L 318 146 L 331.06169257971385 163.70288640174388"/></g><g transform="translate(2,-38) scale(1,1)"><path fill="none" stroke="#000000" d="M 339.7538424181379 149.28181962435855 L 318 146 L 331.06169257971385 163.70288640174388 L 339.7538424181379 149.28181962435855" stroke-miterlimit="10"/></g><g transform="translate(2,-38) scale(1,1)"><path fill="none" stroke="#000000" d="M 133 207 L 207 153" stroke-miterlimit="10"/></g><g transform="translate(2,-38) scale(1,1)"><path fill="#FFFFFF" stroke="none" d="M 195.5441275220244 171.78198567160462 L 207 153 L 185.61860545387492 158.18034431895532"/></g><g transform="translate(2,-38) scale(1,1)"><path fill="none" stroke="#000000" d="M 195.5441275220244 171.78198567160462 L 207 153 L 185.61860545387492 158.18034431895532 L 195.5441275220244 171.78198567160462" stroke-miterlimit="10"/></g><g transform="translate(2,-38) scale(1,1)"><path fill="none" stroke="#000000" d="M 210 295 L 243 179" stroke-miterlimit="10"/></g><g transform="translate(2,-38) scale(1,1)"><path fill="#FFFFFF" stroke="none" d="M 245.5361927805428 200.85332300086014 L 243 179 L 229.34072622815003 196.24599199888632"/></g><g transform="translate(2,-38) scale(1,1)"><path fill="none" stroke="#000000" d="M 245.5361927805428 200.85332300086014 L 243 179 L 229.34072622815003 196.24599199888632 L 245.5361927805428 200.85332300086014" stroke-miterlimit="10"/></g><g transform="translate(2,-38) scale(1,1)"><path fill="none" stroke="#000000" d="M 334 295 L 288 179" stroke-miterlimit="10"/></g><g transform="translate(2,-38) scale(1,1)"><path fill="#FFFFFF" stroke="none" d="M 303.31859605806346 194.79052294288832 L 288 179 L 287.6662972995161 200.99746900231227"/></g><g transform="translate(2,-38) scale(1,1)"><path fill="none" stroke="#000000" d="M 303.31859605806346 194.79052294288832 L 288 179 L 287.6662972995161 200.99746900231227 L 303.31859605806346 194.79052294288832" stroke-miterlimit="10"/></g></g></svg>