<svg version="1.1" xmlns="http://www.w3.org/2000/svg" xmlns:xlink="http://www.w3.org/1999/xlink" width="629.9453125" height="455"><defs/><g><text fill="#eeeeee" stroke="none" font-family="Arial" font-size="24px" font-style="normal" font-weight="normal" text-decoration="none" x="0" y="0">UNREGISTERED</text><text fill="#eeeeee" stroke="none" font-family="Arial" font-size="24px" font-style="normal" font-weight="normal" text-decoration="none" x="0" y="30">UNREGISTERED</text><text fill="#eeeeee" stroke="none" font-family="Arial" font-size="24px" font-style="normal" font-weight="normal" text-decoration="none" x="0" y="60">UNREGISTERED</text><text fill="#eeeeee" stroke="none" font-family="Arial" font-size="24px" font-style="normal" font-weight="normal" text-decoration="none" x="0" y="90">UNREGISTERED</text><text fill="#eeeeee" stroke="none" font-family="Arial" font-size="24px" font-style="normal" font-weight="normal" text-decoration="none" x="0" y="120">UNREGISTERED</text><text fill="#eeeeee" stroke="none" font-family="Arial" font-size="24px" font-style="normal" font-weight="normal" text-decoration="none" x="0" y="150">UNREGISTERED</text><text fill="#eeeeee" stroke="none" font-family="Arial" font-size="24px" font-style="normal" font-weight="normal" text-decoration="none" x="0" y="180">UNREGISTERED</text><text fill="#eeeeee" stroke="none" font-family="Arial" font-size="24px" font-style="normal" font-weight="normal" text-decoration="none" x="0" y="210">UNREGISTERED</text><text fill="#eeeeee" stroke="none" font-family="Arial" font-size="24px" font-style="normal" font-weight="normal" text-decoration="none" x="0" y="240">UNREGISTERED</text><text fill="#eeeeee" stroke="none" font-family="Arial" font-size="24px" font-style="normal" font-weight="normal" text-decoration="none" x="0" y="270">UNREGISTERED</text><text fill="#eeeeee" stroke="none" font-family="Arial" font-size="24px" font-style="normal" font-weight="normal" text-decoration="none" x="0" y="300">UNREGISTERED</text><text fill="#eeeeee" stroke="none" font-family="Arial" font-size="24px" font-style="normal" font-weight="normal" text-decoration="none" x="0" y="330">UNREGISTERED</text><text fill="#eeeeee" stroke="none" font-family="Arial" font-size="24px" font-style="normal" font-weight="normal" text-decoration="none" x="0" y="360">UNREGISTERED</text><text fill="#eeeeee" stroke="none" font-family="Arial" font-size="24px" font-style="normal" font-weight="normal" text-decoration="none" x="0" y="390">UNREGISTERED</text><text fill="#eeeeee" stroke="none" font-family="Arial" font-size="24px" font-style="normal" font-weight="normal" text-decoration="none" x="0" y="420">UNREGISTERED</text><text fill="#eeeeee" stroke="none" font-family="Arial" font-size="24px" font-style="normal" font-weight="normal" text-decoration="none" x="0" y="450">UNREGISTERED</text><text fill="#eeeeee" stroke="none" font-family="Arial" font-size="24px" font-style="normal" font-weight="normal" text-decoration="none" x="200" y="0">UNREGISTERED</text><text fill="#eeeeee" stroke="none" font-family="Arial" font-size="24px" font-style="normal" font-weight="normal" text-decoration="none" x="200" y="30">UNREGISTERED</text><text fill="#eeeeee" stroke="none" font-family="Arial" font-size="24px" font-style="normal" font-weight="normal" text-decoration="none" x="200" y="60">UNREGISTERED</text><text fill="#eeeeee" stroke="none" font-family="Arial" font-size="24px" font-style="normal" font-weight="normal" text-decoration="none" x="200" y="90">UNREGISTERED</text><text fill="#eeeeee" stroke="none" font-family="Arial" font-size="24px" font-style="normal" font-weight="normal" text-decoration="none" x="200" y="120">UNREGISTERED</text><text fill="#eeeeee" stroke="none" font-family="Arial" font-size="24px" font-style="normal" font-weight="normal" text-decoration="none" x="200" y="150">UNREGISTERED</text><text fill="#eeeeee" stroke="none" font-family="Arial" font-size="24px" font-style="normal" font-weight="normal" text-decoration="none" x="200" y="180">UNREGISTERED</text><text fill="#eeeeee" stroke="none" font-family="Arial" font-size="24px" font-style="normal" font-weight="normal" text-decoration="none" x="200" y="210">UNREGISTERED</text><text fill="#eeeeee" stroke="none" font-family="Arial" font-size="24px" font-style="normal" font-weight="normal" text-decoration="none" x="200" y="240">UNREGISTERED</text><text fill="#eeeeee" stroke="none" font-family="Arial" font-size="24px" font-style="normal" font-weight="normal" text-decoration="none" x="200" y="270">UNREGISTERED</text><text fill="#eeeeee" stroke="none" font-family="Arial" font-size="24px" font-style="normal" font-weight="normal" text-decoration="none" x="200" y="300">UNREGISTERED</text><text fill="#eeeeee" stroke="none" font-family="Arial" font-size="24px" font-style="normal" font-weight="normal" text-decoration="none" x="200" y="330">UNREGISTERED</text><text fill="#eeeeee" stroke="none" font-family="Arial" font-size="24px" font-style="normal" font-weight="normal" text-decoration="none" x="200" y="360">UNREGISTERED</text><text fill="#eeeeee" stroke="none" font-family="Arial" font-size="24px" font-style="normal" font-weight="normal" text-decoration="none" x="200" y="390">UNREGISTERED</text><text fill="#eeeeee" stroke="none" font-family="Arial" font-size="24px" font-style="normal" font-weight="normal" text-decoration="none" x="200" y="420">UNREGISTERED</text><text fill="#eeeeee" stroke="none" font-family="Arial" font-size="24px" font-style="normal" font-weight="normal" text-decoration="none" x="200" y="450">UNREGISTERED</text><text fill="#eeeeee" stroke="none" font-family="Arial" font-size="24px" font-style="normal" font-weight="normal" text-decoration="none" x="400" y="0">UNREGISTERED</text><text fill="#eeeeee" stroke="none" font-family="Arial" font-size="24px" font-style="normal" font-weight="normal" text-decoration="none" x="400" y="30">UNREGISTERED</text><text fill="#eeeeee" stroke="none" font-family="Arial" font-size="24px" font-style="normal" font-weight="normal" text-decoration="none" x="400" y="60">UNREGISTERED</text><text fill="#eeeeee" stroke="none" font-family="Arial" font-size="24px" font-style="normal" font-weight="normal" text-decoration="none" x="400" y="90">UNREGISTERED</text><text fill="#eeeeee" stroke="none" font-family="Arial" font-size="24px" font-style="normal" font-weight="normal" text-decoration="none" x="400" y="120">UNREGISTERED</text><text fill="#eeeeee" stroke="none" font-family="Arial" font-size="24px" font-style="normal" font-weight="normal" text-decoration="none" x="400" y="150">UNREGISTERED</text><text fill="#eeeeee" stroke="none" font-family="Arial" font-size="24px" font-style="normal" font-weight="normal" text-decoration="none" x="400" y="180">UNREGISTERED</text><text fill="#eeeeee" stroke="none" font-family="Arial" font-size="24px" font-style="normal" font-weight="normal" text-decoration="none" x="400" y="210">UNREGISTERED</text><text fill="#eeeeee" stroke="none" font-family="Arial" font-size="24px" font-style="normal" font-weight="normal" text-decoration="none" x="400" y="240">UNREGISTERED</text><text fill="#eeeeee" stroke="none" font-family="Arial" font-size="24px" font-style="normal" font-weight="normal" text-decoration="none" x="400" y="270">UNREGISTERED</text><text fill="#eeeeee" stroke="none" font-family="Arial" font-size="24px" font-style="normal" font-weight="normal" text-decoration="none" x="400" y="300">UNREGISTERED</text><text fill="#eeeeee" stroke="none" font-family="Arial" font-size="24px" font-style="normal" font-weight="normal" text-decoration="none" x="400" y="330">UNREGISTERED</text><text fill="#eeeeee" stroke="none" font-family="Arial" font-size="24px" font-style="normal" font-weight="normal" text-decoration="none" x="400" y="360">UNREGISTERED</text><text fill="#eeeeee" stroke="none" font-family="Arial" font-size="24px" font-style="normal" font-weight="normal" text-decoration="none" x="400" y="390">UNREGISTERED</text><text fill="#eeeeee" stroke="none" font-family="Arial" font-size="24px" font-style="normal" font-weight="normal" text-decoration="none" x="400" y="420">UNREGISTERED</text><text fill="#eeeeee" stroke="none" font-family="Arial" font-size="24px" font-style="normal" font-weight="normal" text-decoration="none" x="400" y="450">UNREGISTERED</text><text fill="#eeeeee" stroke="none" font-family="Arial" font-size="24px" font-style="normal" font-weight="normal" text-decoration="none" x="600" y="0">UNREGISTERED</text><text fill="#eeeeee" stroke="none" font-family="Arial" font-size="24px" font-style="normal" font-weight="normal" text-decoration="none" x="600" y="30">UNREGISTERED</text><text fill="#eeeeee" stroke="none" font-family="Arial" font-size="24px" font-style="normal" font-weight="normal" text-decoration="none" x="600" y="60">UNREGISTERED</text><text fill="#eeeeee" stroke="none" font-family="Arial" font-size="24px" font-style="normal" font-weight="normal" text-decoration="none" x="600" y="90">UNREGISTERED</text><text fill="#eeeeee" stroke="none" font-family="Arial" font-size="24px" font-style="normal" font-weight="normal" text-decoration="none" x="600" y="120">UNREGISTERED</text><text fill="#eeeeee" stroke="none" font-family="Arial" font-size="24px" font-style="normal" font-weight="normal" text-decoration="none" x="600" y="150">UNREGISTERED</text><text fill="#eeeeee" stroke="none" font-family="Arial" font-size="24px" font-style="normal" font-weight="normal" text-decoration="none" x="600" y="180">UNREGISTERED</text><text fill="#eeeeee" stroke="none" font-family="Arial" font-size="24px" font-style="normal" font-weight="normal" text-decoration="none" x="600" y="210">UNREGISTERED</text><text fill="#eeeeee" stroke="none" font-family="Arial" font-size="24px" font-style="normal" font-weight="normal" text-decoration="none" x="600" y="240">UNREGISTERED</text><text fill="#eeeeee" stroke="none" font-family="Arial" font-size="24px" font-style="normal" font-weight="normal" text-decoration="none" x="600" y="270">UNREGISTERED</text><text fill="#eeeeee" stroke="none" font-family="Arial" font-size="24px" font-style="normal" font-weight="normal" text-decoration="none" x="600" y="300">UNREGISTERED</text><text fill="#eeeeee" stroke="none" font-family="Arial" font-size="24px" font-style="normal" font-weight="normal" text-decoration="none" x="600" y="330">UNREGISTERED</text><text fill="#eeeeee" stroke="none" font-family="Arial" font-size="24px" font-style="normal" font-weight="normal" text-decoration="none" x="600" y="360">UNREGISTERED</text><text fill="#eeeeee" stroke="none" font-family="Arial" font-size="24px" font-style="normal" font-weight="normal" text-decoration="none" x="600" y="390">UNREGISTERED</text><text fill="#eeeeee" stroke="none" font-family="Arial" font-size="24px" font-style="normal" font-weight="normal" text-decoration="none" x="600" y="420">UNREGISTERED</text><text fill="#eeeeee" stroke="none" font-family="Arial" font-size="24px" font-style="normal" font-weight="normal" text-decoration="none" x="600" y="450">UNREGISTERED</text><g transform="translate(-6,2) scale(1,1)"><rect fill="#C0C0C0" stroke="none" x="23" y="191" width="120.6552734375" height="190" opacity="0.2"/></g><g transform="translate(-6,2) scale(1,1)"><rect fill="#ffffff" stroke="none" x="16" y="184" width="120.6552734375" height="190"/></g><g transform="translate(-6,2) scale(1,1)"><path fill="none" stroke="#000000" d="M 16 184 L 136.6552734375 184 L 136.6552734375 374 L 16 374 L 16 184 Z Z" stroke-miterlimit="10"/></g><g transform="translate(-6,2) scale(1,1)"><path fill="none" stroke="#000000" d="M 16 209 L 136.6552734375 209" stroke-miterlimit="10"/></g><g transform="translate(-6,2) scale(1,1)"><path fill="none" stroke="#000000" d="M 16 277 L 136.6552734375 277" stroke-miterlimit="10"/></g><g transform="translate(-6,2) scale(1,1)"><g><path fill="none" stroke="none"/><text fill="#000000" stroke="none" font-family="Arial" font-size="13px" font-style="normal" font-weight="bold" text-decoration="none" x="43.100830078125" y="202">SpiderMan</text></g></g><g transform="translate(-6,2) scale(1,1)"><g><path fill="none" stroke="none"/><text fill="#000000" stroke="none" font-family="Arial" font-size="13px" font-style="normal" font-weight="normal" text-decoration="none" x="21" y="225">+fullName: String</text></g></g><g transform="translate(-6,2) scale(1,1)"><g><path fill="none" stroke="none"/><text fill="#000000" stroke="none" font-family="Arial" font-size="13px" font-style="normal" font-weight="normal" text-decoration="none" x="21" y="240">+genre: String</text></g></g><g transform="translate(-6,2) scale(1,1)"><g><path fill="none" stroke="none"/><text fill="#000000" stroke="none" font-family="Arial" font-size="13px" font-style="normal" font-weight="normal" text-decoration="none" x="21" y="255">+universe: String</text></g></g><g transform="translate(-6,2) scale(1,1)"><g><path fill="none" stroke="none"/><text fill="#000000" stroke="none" font-family="Arial" font-size="13px" font-style="normal" font-weight="normal" text-decoration="none" x="21" y="270">+occupation: String</text></g></g><g transform="translate(-6,2) scale(1,1)"><g><path fill="none" stroke="none"/><text fill="#000000" stroke="none" font-family="Arial" font-size="13px" font-style="normal" font-weight="normal" text-decoration="none" x="21" y="293">+SpiderMan()</text></g></g><g transform="translate(-6,2) scale(1,1)"><g><path fill="none" stroke="none"/><text fill="#000000" stroke="none" font-family="Arial" font-size="13px" font-style="normal" font-weight="normal" text-decoration="none" x="21" y="308">+getFullName()</text></g></g><g transform="translate(-6,2) scale(1,1)"><g><path fill="none" stroke="none"/><text fill="#000000" stroke="none" font-family="Arial" font-size="13px" font-style="normal" font-weight="normal" text-decoration="none" x="21" y="323">+getGenre()</text></g></g><g transform="translate(-6,2) scale(1,1)"><g><path fill="none" stroke="none"/><text fill="#000000" stroke="none" font-family="Arial" font-size="13px" font-style="normal" font-weight="normal" text-decoration="none" x="21" y="338">+getUniverse()</text></g></g><g transform="translate(-6,2) scale(1,1)"><g><path fill="none" stroke="none"/><text fill="#000000" stroke="none" font-family="Arial" font-size="13px" font-style="normal" font-weight="normal" text-decoration="none" x="21" y="353">+getOccupation()</text></g></g><g transform="translate(-6,2) scale(1,1)"><g><path fill="none" stroke="none"/><text fill="#000000" stroke="none" font-family="Arial" font-size="13px" font-style="normal" font-weight="normal" text-decoration="none" x="21" y="368">+showSpiderMan()</text></g></g><g transform="translate(-6,2) scale(1,1)"><rect fill="#C0C0C0" stroke="none" x="199" y="47" width="139.42529296875" height="57" opacity="0.2"/></g><g transform="translate(-6,2) scale(1,1)"><rect fill="#ffffff" stroke="none" x="192" y="40" width="139.42529296875" height="57"/></g><g transform="translate(-6,2) scale(1,1)"><path fill="none" stroke="#000000" d="M 192 40 L 331.42529296875 40 L 331.42529296875 97 L 192 97 L 192 40 Z Z" stroke-miterlimit="10"/></g><g transform="translate(-6,2) scale(1,1)"><path fill="none" stroke="#000000" d="M 192 65 L 331.42529296875 65" stroke-miterlimit="10"/></g><g transform="translate(-6,2) scale(1,1)"><path fill="none" stroke="#000000" d="M 192 75 L 331.42529296875 75" stroke-miterlimit="10"/></g><g transform="translate(-6,2) scale(1,1)"><g><path fill="none" stroke="none"/><text fill="#000000" stroke="none" font-family="Arial" font-size="13px" font-style="normal" font-weight="bold" text-decoration="none" x="201.0322265625" y="58">GwendolyneMaxine</text></g></g><g transform="translate(-6,2) scale(1,1)"><g><path fill="none" stroke="none"/><text fill="#000000" stroke="none" font-family="Arial" font-size="13px" font-style="normal" font-weight="normal" text-decoration="none" x="197" y="91">+GwendolyneMaxine()</text></g></g><g transform="translate(-6,2) scale(1,1)"><rect fill="#C0C0C0" stroke="none" x="439" y="15" width="193.9453125" height="115" opacity="0.2"/></g><g transform="translate(-6,2) scale(1,1)"><rect fill="#ffffff" stroke="none" x="432" y="8" width="193.9453125" height="115"/></g><g transform="translate(-6,2) scale(1,1)"><path fill="none" stroke="#000000" d="M 432 8 L 625.9453125 8 L 625.9453125 123 L 432 123 L 432 8 Z Z" stroke-miterlimit="10"/></g><g transform="translate(-6,2) scale(1,1)"><path fill="none" stroke="#000000" d="M 432 46 L 625.9453125 46" stroke-miterlimit="10"/></g><g transform="translate(-6,2) scale(1,1)"><path fill="none" stroke="#000000" d="M 432 56 L 625.9453125 56" stroke-miterlimit="10"/></g><g transform="translate(-6,2) scale(1,1)"><g><path fill="none" stroke="none"/><text fill="#000000" stroke="none" font-family="Arial" font-size="13px" font-style="normal" font-weight="normal" text-decoration="none" x="496.812255859375" y="24">«interface»</text></g></g><g transform="translate(-6,2) scale(1,1)"><g><path fill="none" stroke="none"/><text fill="#000000" stroke="none" font-family="Arial" font-size="13px" font-style="normal" font-weight="bold" text-decoration="none" x="436.5" y="39">GwendolyneStacyHabilidades</text></g></g><g transform="translate(-6,2) scale(1,1)"><g><path fill="none" stroke="none"/><text fill="#000000" stroke="none" font-family="Arial" font-size="13px" font-style="normal" font-weight="normal" text-decoration="none" x="437" y="72">+trepaMuros()</text></g></g><g transform="translate(-6,2) scale(1,1)"><g><path fill="none" stroke="none"/><text fill="#000000" stroke="none" font-family="Arial" font-size="13px" font-style="normal" font-weight="normal" text-decoration="none" x="437" y="87">+reflejosSobrehumanos()</text></g></g><g transform="translate(-6,2) scale(1,1)"><g><path fill="none" stroke="none"/><text fill="#000000" stroke="none" font-family="Arial" font-size="13px" font-style="normal" font-weight="normal" text-decoration="none" x="437" y="102">+sentidoAracnido()</text></g></g><g transform="translate(-6,2) scale(1,1)"><g><path fill="none" stroke="none"/><text fill="#000000" stroke="none" font-family="Arial" font-size="13px" font-style="normal" font-weight="normal" text-decoration="none" x="437" y="117">+velocidadSobrehumana()</text></g></g><g transform="translate(-6,2) scale(1,1)"><path fill="none" stroke="#000000" d="M 332 67 L 431 66" stroke-miterlimit="10"/></g><g transform="translate(-6,2) scale(1,1)"><rect fill="#C0C0C0" stroke="none" x="447" y="191" width="170.5224609375" height="115" opacity="0.2"/></g><g transform="translate(-6,2) scale(1,1)"><rect fill="#ffffff" stroke="none" x="440" y="184" width="170.5224609375" height="115"/></g><g transform="translate(-6,2) scale(1,1)"><path fill="none" stroke="#000000" d="M 440 184 L 610.5224609375 184 L 610.5224609375 299 L 440 299 L 440 184 Z Z" stroke-miterlimit="10"/></g><g transform="translate(-6,2) scale(1,1)"><path fill="none" stroke="#000000" d="M 440 222 L 610.5224609375 222" stroke-miterlimit="10"/></g><g transform="translate(-6,2) scale(1,1)"><path fill="none" stroke="#000000" d="M 440 232 L 610.5224609375 232" stroke-miterlimit="10"/></g><g transform="translate(-6,2) scale(1,1)"><g><path fill="none" stroke="none"/><text fill="#000000" stroke="none" font-family="Arial" font-size="13px" font-style="normal" font-weight="normal" text-decoration="none" x="493.100830078125" y="200">«interface»</text></g></g><g transform="translate(-6,2) scale(1,1)"><g><path fill="none" stroke="none"/><text fill="#000000" stroke="none" font-family="Arial" font-size="13px" font-style="normal" font-weight="bold" text-decoration="none" x="447.956298828125" y="215">MilesMoralesHabilidades</text></g></g><g transform="translate(-6,2) scale(1,1)"><g><path fill="none" stroke="none"/><text fill="#000000" stroke="none" font-family="Arial" font-size="13px" font-style="normal" font-weight="normal" text-decoration="none" x="445" y="248">+durabilidadSobrehumana()</text></g></g><g transform="translate(-6,2) scale(1,1)"><g><path fill="none" stroke="none"/><text fill="#000000" stroke="none" font-family="Arial" font-size="13px" font-style="normal" font-weight="normal" text-decoration="none" x="445" y="263">+rayoVenenoso()</text></g></g><g transform="translate(-6,2) scale(1,1)"><g><path fill="none" stroke="none"/><text fill="#000000" stroke="none" font-family="Arial" font-size="13px" font-style="normal" font-weight="normal" text-decoration="none" x="445" y="278">+camuflajeAracnido()</text></g></g><g transform="translate(-6,2) scale(1,1)"><g><path fill="none" stroke="none"/><text fill="#000000" stroke="none" font-family="Arial" font-size="13px" font-style="normal" font-weight="normal" text-decoration="none" x="445" y="293">+explosionDeEnergia()</text></g></g><g transform="translate(-6,2) scale(1,1)"><rect fill="#C0C0C0" stroke="none" x="199" y="215" width="104.00537109375" height="57" opacity="0.2"/></g><g transform="translate(-6,2) scale(1,1)"><rect fill="#ffffff" stroke="none" x="192" y="208" width="104.00537109375" height="57"/></g><g transform="translate(-6,2) scale(1,1)"><path fill="none" stroke="#000000" d="M 192 208 L 296.00537109375 208 L 296.00537109375 265 L 192 265 L 192 208 Z Z" stroke-miterlimit="10"/></g><g transform="translate(-6,2) scale(1,1)"><path fill="none" stroke="#000000" d="M 192 233 L 296.00537109375 233" stroke-miterlimit="10"/></g><g transform="translate(-6,2) scale(1,1)"><path fill="none" stroke="#000000" d="M 192 243 L 296.00537109375 243" stroke-miterlimit="10"/></g><g transform="translate(-6,2) scale(1,1)"><g><path fill="none" stroke="none"/><text fill="#000000" stroke="none" font-family="Arial" font-size="13px" font-style="normal" font-weight="bold" text-decoration="none" x="202.108154296875" y="226">MilesGonzalo</text></g></g><g transform="translate(-6,2) scale(1,1)"><g><path fill="none" stroke="none"/><text fill="#000000" stroke="none" font-family="Arial" font-size="13px" font-style="normal" font-weight="normal" text-decoration="none" x="197" y="259">+MilesGonzalo()</text></g></g><g transform="translate(-6,2) scale(1,1)"><path fill="none" stroke="#000000" d="M 297 237 L 439 239" stroke-miterlimit="10"/></g><g transform="translate(-6,2) scale(1,1)"><rect fill="#C0C0C0" stroke="none" x="207" y="359" width="94.61083984375" height="57" opacity="0.2"/></g><g transform="translate(-6,2) scale(1,1)"><rect fill="#ffffff" stroke="none" x="200" y="352" width="94.61083984375" height="57"/></g><g transform="translate(-6,2) scale(1,1)"><path fill="none" stroke="#000000" d="M 200 352 L 294.61083984375 352 L 294.61083984375 409 L 200 409 L 200 352 Z Z" stroke-miterlimit="10"/></g><g transform="translate(-6,2) scale(1,1)"><path fill="none" stroke="#000000" d="M 200 377 L 294.61083984375 377" stroke-miterlimit="10"/></g><g transform="translate(-6,2) scale(1,1)"><path fill="none" stroke="#000000" d="M 200 387 L 294.61083984375 387" stroke-miterlimit="10"/></g><g transform="translate(-6,2) scale(1,1)"><g><path fill="none" stroke="none"/><text fill="#000000" stroke="none" font-family="Arial" font-size="13px" font-style="normal" font-weight="bold" text-decoration="none" x="210.806396484375" y="370">PeterParker</text></g></g><g transform="translate(-6,2) scale(1,1)"><g><path fill="none" stroke="none"/><text fill="#000000" stroke="none" font-family="Arial" font-size="13px" font-style="normal" font-weight="normal" text-decoration="none" x="205" y="403">+PeterParker()</text></g></g><g transform="translate(-6,2) scale(1,1)"><rect fill="#C0C0C0" stroke="none" x="447" y="335" width="169.05615234375" height="115" opacity="0.2"/></g><g transform="translate(-6,2) scale(1,1)"><rect fill="#ffffff" stroke="none" x="440" y="328" width="169.05615234375" height="115"/></g><g transform="translate(-6,2) scale(1,1)"><path fill="none" stroke="#000000" d="M 440 328 L 609.05615234375 328 L 609.05615234375 443 L 440 443 L 440 328 Z Z" stroke-miterlimit="10"/></g><g transform="translate(-6,2) scale(1,1)"><path fill="none" stroke="#000000" d="M 440 366 L 609.05615234375 366" stroke-miterlimit="10"/></g><g transform="translate(-6,2) scale(1,1)"><path fill="none" stroke="#000000" d="M 440 376 L 609.05615234375 376" stroke-miterlimit="10"/></g><g transform="translate(-6,2) scale(1,1)"><g><path fill="none" stroke="none"/><text fill="#000000" stroke="none" font-family="Arial" font-size="13px" font-style="normal" font-weight="normal" text-decoration="none" x="492.36767578125" y="344">«interface»</text></g></g><g transform="translate(-6,2) scale(1,1)"><g><path fill="none" stroke="none"/><text fill="#000000" stroke="none" font-family="Arial" font-size="13px" font-style="normal" font-weight="bold" text-decoration="none" x="451.5458984375" y="359">PeterParkerHabilidades</text></g></g><g transform="translate(-6,2) scale(1,1)"><g><path fill="none" stroke="none"/><text fill="#000000" stroke="none" font-family="Arial" font-size="13px" font-style="normal" font-weight="normal" text-decoration="none" x="445" y="392">+resistenciaSobrehumana()</text></g></g><g transform="translate(-6,2) scale(1,1)"><g><path fill="none" stroke="none"/><text fill="#000000" stroke="none" font-family="Arial" font-size="13px" font-style="normal" font-weight="normal" text-decoration="none" x="445" y="407">+factorDeCuración()</text></g></g><g transform="translate(-6,2) scale(1,1)"><g><path fill="none" stroke="none"/><text fill="#000000" stroke="none" font-family="Arial" font-size="13px" font-style="normal" font-weight="normal" text-decoration="none" x="445" y="422">+velocidadSobrehumana()</text></g></g><g transform="translate(-6,2) scale(1,1)"><g><path fill="none" stroke="none"/><text fill="#000000" stroke="none" font-family="Arial" font-size="13px" font-style="normal" font-weight="normal" text-decoration="none" x="445" y="437">+habilidadParaSaltar()</text></g></g><g transform="translate(-6,2) scale(1,1)"><path fill="none" stroke="#000000" d="M 296 381 L 439 383" stroke-miterlimit="10"/></g><g transform="translate(-6,2) scale(1,1)"><path fill="none" stroke="#000000" d="M 235 98 L 138 209" stroke-miterlimit="10"/></g><g transform="translate(-6,2) scale(1,1)"><path fill="#FFFFFF" stroke="none" d="M 145.03506556664476 188.15514805826126 L 138 209 L 157.71407872909953 199.23500640743345"/></g><g transform="translate(-6,2) scale(1,1)"><path fill="none" stroke="#000000" d="M 145.03506556664476 188.15514805826126 L 138 209 L 157.71407872909953 199.23500640743345 L 145.03506556664476 188.15514805826126" stroke-miterlimit="10"/></g><g transform="translate(-6,2) scale(1,1)"><path fill="none" stroke="#000000" d="M 191 250 L 138 263" stroke-miterlimit="10"/></g><g transform="translate(-6,2) scale(1,1)"><path fill="#FFFFFF" stroke="none" d="M 155.7346045512766 249.98140555167956 L 138 263 L 159.74579555579442 266.33472272394454"/></g><g transform="translate(-6,2) scale(1,1)"><path fill="none" stroke="#000000" d="M 155.7346045512766 249.98140555167956 L 138 263 L 159.74579555579442 266.33472272394454 L 155.7346045512766 249.98140555167956" stroke-miterlimit="10"/></g><g transform="translate(-6,2) scale(1,1)"><path fill="none" stroke="#000000" d="M 199 352 L 138 315" stroke-miterlimit="10"/></g><g transform="translate(-6,2) scale(1,1)"><path fill="#FFFFFF" stroke="none" d="M 159.74458281624626 318.34262144841557 L 138 315 L 151.01215167032595 332.73933225655446"/></g><g transform="translate(-6,2) scale(1,1)"><path fill="none" stroke="#000000" d="M 159.74458281624626 318.34262144841557 L 138 315 L 151.01215167032595 332.73933225655446 L 159.74458281624626 318.34262144841557" stroke-miterlimit="10"/></g></g></svg>