<svg version="1.1" xmlns="http://www.w3.org/2000/svg" xmlns:xlink="http://www.w3.org/1999/xlink" width="169.53076171875" height="195"><defs/><g><text fill="#eeeeee" stroke="none" font-family="Arial" font-size="24px" font-style="normal" font-weight="normal" text-decoration="none" x="0" y="0">UNREGISTERED</text><text fill="#eeeeee" stroke="none" font-family="Arial" font-size="24px" font-style="normal" font-weight="normal" text-decoration="none" x="0" y="30">UNREGISTERED</text><text fill="#eeeeee" stroke="none" font-family="Arial" font-size="24px" font-style="normal" font-weight="normal" text-decoration="none" x="0" y="60">UNREGISTERED</text><text fill="#eeeeee" stroke="none" font-family="Arial" font-size="24px" font-style="normal" font-weight="normal" text-decoration="none" x="0" y="90">UNREGISTERED</text><text fill="#eeeeee" stroke="none" font-family="Arial" font-size="24px" font-style="normal" font-weight="normal" text-decoration="none" x="0" y="120">UNREGISTERED</text><text fill="#eeeeee" stroke="none" font-family="Arial" font-size="24px" font-style="normal" font-weight="normal" text-decoration="none" x="0" y="150">UNREGISTERED</text><text fill="#eeeeee" stroke="none" font-family="Arial" font-size="24px" font-style="normal" font-weight="normal" text-decoration="none" x="0" y="180">UNREGISTERED</text><g transform="translate(-22,-166) scale(1,1)"><rect fill="#C0C0C0" stroke="none" x="39" y="183" width="149.53076171875" height="175" opacity="0.2"/></g><g transform="translate(-22,-166) scale(1,1)"><rect fill="#ffffff" stroke="none" x="32" y="176" width="149.53076171875" height="175"/></g><g transform="translate(-22,-166) scale(1,1)"><path fill="none" stroke="#000000" d="M 32 176 L 181.53076171875 176 L 181.53076171875 351 L 32 351 L 32 176 Z Z" stroke-miterlimit="10"/></g><g transform="translate(-22,-166) scale(1,1)"><path fill="none" stroke="#000000" d="M 32 201 L 181.53076171875 201" stroke-miterlimit="10"/></g><g transform="translate(-22,-166) scale(1,1)"><path fill="none" stroke="#000000" d="M 32 314 L 181.53076171875 314" stroke-miterlimit="10"/></g><g transform="translate(-22,-166) scale(1,1)"><g><path fill="none" stroke="none"/><text fill="#000000" stroke="none" font-family="Arial" font-size="13px" font-style="normal" font-weight="bold" text-decoration="none" x="76.417236328125" y="194">Character</text></g></g><g transform="translate(-22,-166) scale(1,1)"><g><path fill="none" stroke="none"/><text fill="#000000" stroke="none" font-family="Arial" font-size="13px" font-style="normal" font-weight="normal" text-decoration="none" x="37" y="217">-id: int</text></g></g><g transform="translate(-22,-166) scale(1,1)"><g><path fill="none" stroke="none"/><text fill="#000000" stroke="none" font-family="Arial" font-size="13px" font-style="normal" font-weight="normal" text-decoration="none" x="37" y="232">-name: String</text></g></g><g transform="translate(-22,-166) scale(1,1)"><g><path fill="none" stroke="none"/><text fill="#000000" stroke="none" font-family="Arial" font-size="13px" font-style="normal" font-weight="normal" text-decoration="none" x="37" y="247">-species: String</text></g></g><g transform="translate(-22,-166) scale(1,1)"><g><path fill="none" stroke="none"/><text fill="#000000" stroke="none" font-family="Arial" font-size="13px" font-style="normal" font-weight="normal" text-decoration="none" x="37" y="262">-house: String</text></g></g><g transform="translate(-22,-166) scale(1,1)"><g><path fill="none" stroke="none"/><text fill="#000000" stroke="none" font-family="Arial" font-size="13px" font-style="normal" font-weight="normal" text-decoration="none" x="37" y="277">-genre: String</text></g></g><g transform="translate(-22,-166) scale(1,1)"><g><path fill="none" stroke="none"/><text fill="#000000" stroke="none" font-family="Arial" font-size="13px" font-style="normal" font-weight="normal" text-decoration="none" x="37" y="292">-boggart: String</text></g></g><g transform="translate(-22,-166) scale(1,1)"><g><path fill="none" stroke="none"/><text fill="#000000" stroke="none" font-family="Arial" font-size="13px" font-style="normal" font-weight="normal" text-decoration="none" x="37" y="307">-patronus: String</text></g></g><g transform="translate(-22,-166) scale(1,1)"><g><path fill="none" stroke="none"/><text fill="#000000" stroke="none" font-family="Arial" font-size="13px" font-style="normal" font-weight="normal" text-decoration="none" x="37" y="330">+Character()</text></g></g><g transform="translate(-22,-166) scale(1,1)"><g><path fill="none" stroke="none"/><text fill="#000000" stroke="none" font-family="Arial" font-size="13px" font-style="normal" font-weight="normal" text-decoration="none" x="37" y="345">+showMessage()</text></g></g></g></svg>